<svg viewBox="0 0 32 32" xmlns="http://www.w3.org/2000/svg">
<path style="fill: var(--icon-color, currentColor)" d="M8 2H0V26H10V4C10 2.895 9.105 2 8 2Z" />
<path style="fill: var(--icon-color, currentColor)" d="M31.196 15.02L26.741 14.129L23.936 6.649C23.79 6.259 23.417 6 23 6H13C12.448 6 12 6.447 12 7V25C12 25.553 12.448 26 13 26H14.101C14.566 28.279 16.585 30 19 30C21.415 30 23.434 28.279 23.899 26H31C31.552 26 32 25.553 32 25V16C32 15.523 31.664 15.113 31.196 15.02ZM15 9H22L23.771 14H15V9ZM19 28C17.346 28 16 26.654 16 25C16 23.346 17.346 22 19 22C20.654 22 22 23.346 22 25C22 26.654 20.654 28 19 28Z" />
</svg>
