<svg viewBox="0 0 32 32" xmlns="http://www.w3.org/2000/svg">
    <path style="fill: var(--icon-color, currentColor)" d="M30.414 27.586L22.77 19.942C24.5205 17.4823 25.2829 14.4547 24.906 11.4593C24.5291 8.46391 23.0405 5.7195 20.7352 3.77011C18.43 1.82072 15.4764 0.808665 12.46 0.934587C9.44367 1.06051 6.58474 2.31521 4.44999 4.44996C2.31524 6.58471 1.06054 9.44364 0.934618 12.46C0.808695 15.4764 1.82075 18.4299 3.77014 20.7352C5.71953 23.0404 8.46394 24.529 11.4593 24.9059C14.4547 25.2828 17.4823 24.5205 19.942 22.77L27.586 30.414C27.9632 30.7783 28.4684 30.9799 28.9928 30.9753C29.5172 30.9708 30.0188 30.7605 30.3897 30.3896C30.7605 30.0188 30.9708 29.5172 30.9754 28.9928C30.9799 28.4684 30.7783 27.9632 30.414 27.586ZM3.00003 13C3.00003 11.0222 3.58652 9.08879 4.68533 7.4443C5.78415 5.7998 7.34593 4.51808 9.17319 3.7612C11.0005 3.00433 13.0111 2.80629 14.9509 3.19214C16.8907 3.578 18.6726 4.5304 20.0711 5.92893C21.4696 7.32746 22.422 9.10929 22.8079 11.0491C23.1937 12.9889 22.9957 14.9996 22.2388 16.8268C21.4819 18.6541 20.2002 20.2159 18.5557 21.3147C16.9112 22.4135 14.9778 23 13 23C10.3488 22.9971 7.80691 21.9426 5.93218 20.0679C4.05744 18.1931 3.00294 15.6513 3.00003 13Z" />
</svg>
